HIERARCHY
ROOT Hips
{
	OFFSET -3.958830 18.904000 13.208200
	CHANNELS 6 Xposition Yposition Zposition Zrotation Yrotation Xrotation 
	JOINT LHipJoint
	{
		OFFSET 0.000000 0.000000 0.000000
		CHANNELS 3 Zrotation Yrotation Xrotation
		JOINT LeftUpLeg
		{
			OFFSET 1.800000 -1.400000 0.085000
			CHANNELS 3 Zrotation Yrotation Xrotation
			JOINT LeftLeg
			{
				OFFSET 2.215000 -6.000000 0.000000
				CHANNELS 3 Zrotation Yrotation Xrotation
				JOINT LeftFoot
				{
					OFFSET 2.500000 -6.900000 0.000000
					CHANNELS 3 Zrotation Yrotation Xrotation
					JOINT LeftToeBase
					{
						OFFSET 0.200000 -0.500000 1.950000
						CHANNELS 3 Zrotation Yrotation Xrotation
						End Site
						{
							OFFSET 0.000000 0.000000 0.000000
						}
					}
				}
			}
		}
	}
	JOINT RHipJoint
	{
		OFFSET 0.000000 0.000000 0.000000
		CHANNELS 3 Zrotation Yrotation Xrotation
		JOINT RightUpLeg
		{
			OFFSET -1.800000 -1.400000 0.085000
			CHANNELS 3 Zrotation Yrotation Xrotation
			JOINT RightLeg
			{
				OFFSET -2.215000 -6.000000 0.000000
				CHANNELS 3 Zrotation Yrotation Xrotation
				JOINT RightFoot
				{
					OFFSET -2.500000 -6.900000 0.000000
					CHANNELS 3 Zrotation Yrotation Xrotation
					JOINT RightToeBase
					{
						OFFSET -0.200000 -0.500000 1.950000
						CHANNELS 3 Zrotation Yrotation Xrotation
						End Site
						{
							OFFSET 0.000000 0.000000 0.000000
						}
					}
				}
			}
		}
	}
	JOINT LowerBack
	{
		OFFSET 0.000000 0.000000 0.000000
		CHANNELS 3 Zrotation Yrotation Xrotation
		JOINT Spine
		{
			OFFSET -0.087000 1.940000 -0.288900
			CHANNELS 3 Zrotation Yrotation Xrotation
			JOINT Spine1
			{
				OFFSET 0.000000 1.950000 0.060000
				CHANNELS 3 Zrotation Yrotation Xrotation
				JOINT Neck
				{
					OFFSET 0.000000 0.000000 0.000000
					CHANNELS 3 Zrotation Yrotation Xrotation
					JOINT Neck1
					{
						OFFSET 0.000000 1.600000 0.340000
						CHANNELS 3 Zrotation Yrotation Xrotation
						JOINT Head
						{
							OFFSET 0.000000 1.667000 -0.240000
							CHANNELS 3 Zrotation Yrotation Xrotation
							End Site
							{
								OFFSET 0.000000 0.000000 0.000000
							}
						}
					}
				}
				JOINT LeftShoulder
				{
					OFFSET 0.000000 0.000000 0.000000
					CHANNELS 3 Zrotation Yrotation Xrotation
					JOINT LeftArm
					{
						OFFSET 2.700000 1.550000 -0.730000
						CHANNELS 3 Zrotation Yrotation Xrotation
						JOINT LeftForeArm
						{
							OFFSET 5.450000 0.000000 0.000000
							CHANNELS 3 Zrotation Yrotation Xrotation
							JOINT LeftHand
							{
								OFFSET 3.450000 0.000000 0.000000
								CHANNELS 3 Zrotation Yrotation Xrotation
								JOINT LeftHandIndex1
								{
									OFFSET 0.750000 0.000000 0.000000
									CHANNELS 3 Zrotation Yrotation Xrotation
									End Site
									{
										OFFSET 0.000000 0.000000 0.000000
									}
								}
							}
						}
					}
				}
				JOINT RightShoulder
				{
					OFFSET 0.000000 0.000000 0.000000
					CHANNELS 3 Zrotation Yrotation Xrotation
					JOINT RightArm
					{
						OFFSET -2.700000 1.550000 -0.730000
						CHANNELS 3 Zrotation Yrotation Xrotation
						JOINT RightForeArm
						{
							OFFSET -5.450000 0.000000 0.000000
							CHANNELS 3 Zrotation Yrotation Xrotation
							JOINT RightHand
							{
								OFFSET -3.450000 0.000000 0.000000
								CHANNELS 3 Zrotation Yrotation Xrotation
								JOINT RightHandIndex1
								{
									OFFSET -0.750000 0.000000 0.000000
									CHANNELS 3 Zrotation Yrotation Xrotation
									End Site
									{
										OFFSET 0.000000 0.000000 0.000000
									}
								}
							}
						}
					}
				}
			}
		}
	}
}
MOTION
Frames: 4
Frame Time: 0.016667
-0.039740 17.352450 -3.455190 -4.215331 -21.015255 6.474594 -15.430509 14.146443 3.713998 4.041285 -2.071334 -21.259965 -9.862393 5.025972 7.914927 -0.248420 3.274205 3.428855 0.252080 0.083410 0.180930 17.837659 -9.864819 3.106836 -0.904675 2.162224 -11.675298 10.824615 -4.450670 8.140321 -0.303360 -2.798255 3.475216 -0.104180 0.035450 0.212430 -2.241252 -4.752212 -8.502652 12.142410 -3.260409 26.829021 -5.296738 2.570027 -2.336918 12.441828 -8.504309 -10.580872 -18.466549 10.947366 43.354525 -12.831700 8.318810 -9.936450 -22.068212 3.840977 -1.697349 -59.729780 4.037683 -8.274913 -12.228309 -12.491673 -1.184058 -3.703441 2.796114 0.478520 -0.036480 0.156720 0.104550 -2.342983 8.207213 6.493852 11.567977 2.681471 -10.139209 -74.412375 52.560774 -35.145721 1.724095 -0.915945 0.012310 0.107680 0.031610 -0.114990 
-0.023820 17.343050 -3.443780 -4.373392 -21.731659 7.340078 -15.426533 14.036578 3.708439 3.622276 -1.907260 -20.118631 -9.558280 4.510183 5.113665 -0.273413 3.183112 3.502835 0.244070 0.069900 0.178760 17.865359 -9.843867 3.132388 -0.723249 2.235525 -11.910740 10.632109 -4.173349 6.921129 -0.280774 -2.755322 3.496149 -0.087980 0.074590 0.210630 -2.300775 -4.566038 -8.505607 12.824169 -3.100061 25.210666 -5.033695 2.453878 -1.441152 12.492036 -8.866676 -10.724913 -18.699965 11.072623 41.764455 -12.974900 8.933440 -9.193560 -21.376567 3.473953 -1.136769 -61.229881 4.596296 -8.704544 -12.454877 -13.074609 -1.290035 -3.737162 2.788133 0.465070 -0.000590 0.129270 0.116640 -3.122440 9.014843 6.172481 8.832375 5.483334 -9.565940 -60.844583 45.544228 -23.315549 1.879632 -1.270405 -0.019290 0.124510 0.032310 -0.121580 
-0.008300 17.334250 -3.441100 -4.536365 -22.083225 7.779813 -15.419993 13.945847 3.714554 3.248369 -1.772555 -19.102139 -9.238792 4.114682 2.848897 -0.298212 3.154124 3.552084 0.247180 0.065750 0.183040 17.893650 -9.828211 3.140518 -0.557367 2.284453 -11.933781 10.437128 -4.010690 6.208018 -0.270140 -2.750584 3.508952 -0.069230 0.109700 0.209300 -2.369865 -4.420714 -8.500084 13.552614 -3.138444 24.087699 -5.000138 2.147845 -0.327289 12.584914 -9.054138 -11.042007 -18.753580 11.245504 40.523996 -13.035350 9.470900 -8.702520 -21.243344 2.302465 -0.439206 -62.070932 4.914809 -9.148193 -12.167625 -13.806582 -1.425607 -3.754697 2.783191 0.462980 0.031980 0.106110 0.131520 -3.405447 10.324773 6.170942 6.027440 8.278241 -8.805221 -50.824810 36.736270 -15.359701 2.003070 -1.458505 -0.050010 0.143270 0.028690 -0.131400 
0.003250 17.332130 -3.445470 -4.738265 -22.291513 7.813930 -15.407638 13.890337 3.717150 3.166366 -1.618356 -18.207764 -9.050577 3.893000 1.347479 -0.296480 3.161531 3.565022 0.256360 0.083360 0.184770 17.919747 -9.815504 3.148217 -0.489892 2.287717 -11.622625 10.463761 -3.937050 5.733309 -0.275972 -2.781323 3.500851 -0.049720 0.118970 0.208660 -2.442152 -4.330422 -8.494890 14.440577 -3.275793 23.613003 -5.270441 1.906421 0.539311 12.740432 -9.229756 -11.380431 -18.960880 11.447793 39.877211 -13.017720 9.727760 -8.621010 -21.797453 0.973727 0.151948 -61.984267 5.107242 -9.459513 -11.880022 -14.558204 -1.502596 -3.748242 2.796236 0.454870 0.045610 0.100670 0.139100 -3.159071 11.776697 6.275695 3.685578 10.491940 -8.296591 -45.268036 29.392055 -11.219275 2.097223 -1.532923 -0.056780 0.148390 0.021990 -0.131480 
